<svg width="300" height="45" viewBox="0 0 300 45" fill="none" xmlns="http://www.w3.org/2000/svg">
<rect width="300" height="45" rx="6" fill="#FEE500"/>
<path d="M127.88 17.32C127.865 21.925 125.57 24.88 121.88 26.74L121.055 25.72C123.125 24.775 124.775 23.365 125.705 21.52L121.505 21.97L121.265 20.8L126.14 20.425C126.335 19.81 126.455 19.15 126.485 18.445H121.79V17.32H127.88ZM131.195 15.94V21.22H133.28V22.315H131.195V29.05H129.875V15.94H131.195ZM140.859 17.32C140.844 21.925 138.549 24.88 134.859 26.74L134.034 25.72C136.104 24.775 137.754 23.365 138.684 21.52L134.484 21.97L134.244 20.8L139.119 20.425C139.314 19.81 139.434 19.15 139.464 18.445H134.769V17.32H140.859ZM144.174 15.94V21.22H146.259V22.315H144.174V29.05H142.854V15.94H144.174ZM157.827 20.395C157.827 22.435 156.162 23.845 153.597 24.04V26.26H158.862V27.355H147.027V26.26H152.262V24.025C149.712 23.815 148.062 22.435 148.062 20.395C148.062 18.205 150.012 16.75 152.937 16.75C155.892 16.75 157.827 18.205 157.827 20.395ZM156.462 20.395C156.462 18.91 155.067 17.86 152.937 17.86C150.822 17.86 149.427 18.91 149.427 20.395C149.427 21.895 150.822 22.93 152.937 22.93C155.052 22.93 156.462 21.895 156.462 20.395ZM175.781 27.385H163.946V26.305H169.166V24.235H165.371V20.02H172.991V18.1H165.341V17.02H174.311V21.1H166.691V23.155H174.671V24.235H170.501V26.305H175.781V27.385ZM188.759 27.145H176.924V26.065H188.759V27.145ZM187.184 17.425C187.184 20.41 186.959 23.425 186.569 25.12L185.279 24.955C185.609 23.695 185.834 20.47 185.834 18.49H178.154V17.425H187.184ZM200.658 25.465H199.323V15.94H200.658V25.465ZM200.958 28.645H192.033V24.565H193.368V27.58H200.958V28.645ZM193.698 16.825C195.723 16.825 197.208 18.22 197.208 20.095C197.208 21.985 195.723 23.29 193.698 23.29C191.688 23.29 190.203 21.985 190.203 20.11C190.203 18.22 191.688 16.825 193.698 16.825ZM193.698 17.965C192.468 17.965 191.598 18.865 191.598 20.08C191.598 21.28 192.468 22.18 193.698 22.18C194.988 22.18 195.798 21.295 195.798 20.095C195.798 18.85 194.988 17.965 193.698 17.965Z" fill="black" fill-opacity="0.85"/>
<g clip-path="url(#clip0_265_2767)">
<path fill-rule="evenodd" clip-rule="evenodd" d="M106.5 13.9761C101.529 13.9761 97.5 17.1055 97.5 20.9651C97.5 23.3654 99.0584 25.4815 101.432 26.7401L100.433 30.4069C100.345 30.7309 100.713 30.9891 100.996 30.8014L105.373 27.8974C105.743 27.9332 106.118 27.9541 106.5 27.9541C111.47 27.9541 115.5 24.8249 115.5 20.9651C115.5 17.1055 111.47 13.9761 106.5 13.9761" fill="black"/>
</g>
<defs>
<clipPath id="clip0_265_2767">
<rect width="18" height="17" fill="white" transform="translate(97.5 14)"/>
</clipPath>
</defs>
</svg>
