<svg width="24" height="24" viewBox="0 0 24 24" fill="none" xmlns="http://www.w3.org/2000/svg">
<path d="M12 0C8.81847 0.00349392 5.76826 1.2689 3.51858 3.51858C1.2689 5.76826 0.00349392 8.81847 0 12V22.1196C0.000635056 22.6181 0.198952 23.096 0.551458 23.4485C0.903964 23.801 1.38188 23.9994 1.8804 24H12C15.1826 24 18.2348 22.7357 20.4853 20.4853C22.7357 18.2348 24 15.1826 24 12C24 8.8174 22.7357 5.76515 20.4853 3.51472C18.2348 1.26428 15.1826 0 12 0ZM12 22.08H1.92V12C1.92 10.0064 2.51118 8.0575 3.61879 6.39985C4.72639 4.7422 6.30067 3.45023 8.14255 2.68729C9.98443 1.92436 12.0112 1.72475 13.9665 2.11368C15.9218 2.50262 17.7179 3.46265 19.1276 4.87236C20.5373 6.28208 21.4974 8.07816 21.8863 10.0335C22.2753 11.9888 22.0756 14.0156 21.3127 15.8574C20.5498 17.6993 19.2578 19.2736 17.6001 20.3812C15.9425 21.4888 13.9936 22.08 12 22.08ZM13.44 12.48C13.44 12.7648 13.3555 13.0432 13.1973 13.28C13.0391 13.5168 12.8142 13.7014 12.5511 13.8104C12.2879 13.9194 11.9984 13.9479 11.7191 13.8923C11.4397 13.8368 11.1832 13.6996 10.9818 13.4982C10.7804 13.2968 10.6432 13.0403 10.5877 12.7609C10.5321 12.4816 10.5606 12.1921 10.6696 11.9289C10.7786 11.6658 10.9632 11.4409 11.2 11.2827C11.4368 11.1245 11.7152 11.04 12 11.04C12.3819 11.04 12.7482 11.1917 13.0182 11.4618C13.2883 11.7318 13.44 12.0981 13.44 12.48ZM8.16 12.48C8.16 12.7648 8.07555 13.0432 7.91732 13.28C7.75909 13.5168 7.53419 13.7014 7.27106 13.8104C7.00794 13.9194 6.7184 13.9479 6.43907 13.8923C6.15974 13.8368 5.90315 13.6996 5.70177 13.4982C5.50038 13.2968 5.36323 13.0403 5.30767 12.7609C5.25211 12.4816 5.28062 12.1921 5.38961 11.9289C5.4986 11.6658 5.68317 11.4409 5.91998 11.2827C6.15679 11.1245 6.43519 11.04 6.72 11.04C7.10191 11.04 7.46818 11.1917 7.73823 11.4618C8.00829 11.7318 8.16 12.0981 8.16 12.48ZM18.72 12.48C18.72 12.7648 18.6355 13.0432 18.4773 13.28C18.3191 13.5168 18.0942 13.7014 17.8311 13.8104C17.5679 13.9194 17.2784 13.9479 16.9991 13.8923C16.7197 13.8368 16.4632 13.6996 16.2618 13.4982C16.0604 13.2968 15.9232 13.0403 15.8677 12.7609C15.8121 12.4816 15.8406 12.1921 15.9496 11.9289C16.0586 11.6658 16.2432 11.4409 16.48 11.2827C16.7168 11.1245 16.9952 11.04 17.28 11.04C17.6619 11.04 18.0282 11.1917 18.2982 11.4618C18.5683 11.7318 18.72 12.0981 18.72 12.48Z" fill="#CECECE"/>
</svg>
