<svg width="177" height="67" viewBox="0 0 177 67" fill="none" xmlns="http://www.w3.org/2000/svg">
<path d="M22.422 35H16.1614L16.1229 22.1714C15.9693 19.3291 14.7018 18.0232 12.3589 18.0232C10.0159 18.0232 8.67158 19.3291 8.55635 22.0177L8.51794 35H2.14203V12.7611H7.51931V13.8366C8.78681 13.0684 10.3232 12.5691 12.3589 12.5691C15.1627 12.5691 17.4673 13.1836 19.2725 15.4498C21.3082 13.1836 23.3823 12.5691 26.1861 12.5691C32.1011 12.5307 35.942 16.0259 36.2109 21.288C36.2493 21.8257 36.2877 22.4018 36.2877 22.978V35H30.1039V24.6295C30.1039 23.7077 30.0654 22.8627 29.9886 22.0177C29.7966 19.3291 28.5291 18.0616 26.1861 18.0232C23.8432 18.0232 22.5757 19.3291 22.3836 22.133L22.422 35ZM44.9175 23.9766C44.9175 27.2798 47.1836 29.6995 50.2179 29.6611C53.2906 29.6611 55.5568 27.2798 55.5568 23.9766C55.5568 20.6734 53.2906 18.292 50.2179 18.292C47.1836 18.292 44.9175 20.6734 44.9175 23.9766ZM38.6184 23.9766C38.6184 17.9848 43.9956 12.5691 50.2563 12.5691C56.5554 12.5691 61.8559 18.0232 61.8559 23.9766C61.8559 29.9684 56.5554 35.3841 50.2563 35.3841C43.9572 35.3841 38.6184 29.9684 38.6184 23.9766ZM85.1744 35H78.9137L78.8753 22.1714C78.7217 19.3291 77.4542 18.0232 75.1112 18.0232C72.7682 18.0232 71.4239 19.3291 71.3087 22.0177L71.2703 35H64.8944V12.7611H70.2717V13.8366C71.5392 13.0684 73.0755 12.5691 75.1112 12.5691C77.9151 12.5691 80.2196 13.1836 82.0248 15.4498C84.0605 13.1836 86.1346 12.5691 88.9385 12.5691C94.8535 12.5307 98.6944 16.0259 98.9632 21.288C99.0017 21.8257 99.0401 22.4018 99.0401 22.978V35H92.8562V24.6295C92.8562 23.7077 92.8178 22.8627 92.741 22.0177C92.5489 19.3291 91.2814 18.0616 88.9385 18.0232C86.5955 18.0232 85.328 19.3291 85.136 22.133L85.1744 35ZM107.977 21.5184H117.349C117.157 19.5211 115.313 17.4086 112.586 17.4086C110.013 17.4086 108.361 19.2139 107.977 21.5184ZM117.925 28.0095L123.072 29.1618C121.804 32.0809 118.847 35.3841 112.893 35.3841C107.209 35.3841 101.486 31.0055 101.486 23.9766C101.486 17.1782 106.825 12.5691 112.471 12.5691C119.615 12.5691 123.456 17.6007 123.456 25.7434H107.862C108.246 28.1632 110.358 29.8916 112.855 30.122C114.814 30.3141 116.811 29.5075 117.925 28.0095ZM132.86 35H126.484V12.7611H131.861V14.067C133.282 13.1452 135.049 12.5691 137.2 12.5691C143.768 12.5307 147.763 16.41 147.724 22.5555L147.763 35H141.579L141.54 23.5157C141.54 19.79 140.158 18.0232 137.2 18.0232C134.627 18.0232 133.129 19.4827 132.937 22.3634C132.86 22.978 132.86 23.6693 132.86 24.3991V35ZM152.13 13.4525V6.65409H158.353V13.4525H162.616V18.7145H158.353V24.8216C158.353 25.3209 158.353 25.7434 158.391 26.1659C158.468 27.8943 158.929 28.8161 159.812 29.085C160.696 29.4307 161.656 29.1618 162.232 29.1618L163.192 34.6159C162.424 34.5775 160.504 35.192 158.353 35C153.628 34.4623 152.361 30.967 152.207 27.3182C152.169 26.55 152.169 25.7434 152.169 24.9368L152.13 18.7145H149.058V13.4525H152.13Z" fill="black"/>
<circle cx="173" cy="31" r="4" fill="#92B5D9"/>
<path d="M21.5758 64.897V62.089H29.0638V60.932H21.5758V60.126H30.0518V62.869H22.5638V64.065H30.3118V64.897H21.5758ZM24.7738 55.719C24.7132 55.979 24.6222 56.2303 24.5008 56.473C24.6395 56.655 24.7955 56.824 24.9688 56.98C25.2462 57.2313 25.5538 57.4567 25.8918 57.656C26.2385 57.8553 26.6068 58.0243 26.9968 58.163C27.3955 58.3017 27.7985 58.41 28.2058 58.488L27.6988 59.32C27.3262 59.2333 26.9448 59.112 26.5548 58.956C26.1735 58.7913 25.8052 58.6007 25.4498 58.384C25.0945 58.1587 24.7608 57.9073 24.4488 57.63C24.3015 57.4913 24.1628 57.3483 24.0328 57.201C23.8162 57.4783 23.5735 57.7383 23.3048 57.981C22.8542 58.3797 22.3515 58.7263 21.7968 59.021C21.2508 59.3157 20.7135 59.5367 20.1848 59.684L19.6258 58.943C20.1892 58.787 20.7178 58.5877 21.2118 58.345C21.7145 58.0937 22.1522 57.8033 22.5248 57.474C22.9062 57.136 23.2095 56.7633 23.4348 56.356C23.5475 56.148 23.6385 55.9357 23.7078 55.719H20.4578V54.913H27.6598V55.719H24.7738ZM29.0638 59.528V53.379H30.0518V56.031H31.6508V56.889H30.0518V59.528H29.0638ZM21.9658 54.016V53.21H26.1518V54.016H21.9658ZM40.9372 64.975V53.379H41.9252V57.539H43.8102V58.423H41.9252V64.975H40.9372ZM33.7872 53.743V61.842L40.2352 61.543V62.401L32.7992 62.804V53.743H33.7872ZM45.7516 64.403C45.7516 64.559 45.7256 64.715 45.6736 64.871C45.6216 65.0357 45.5522 65.1917 45.4656 65.339C45.3789 65.4863 45.2749 65.625 45.1536 65.755C45.0409 65.885 44.9196 65.9977 44.7896 66.093L44.4646 65.807C44.6639 65.651 44.8112 65.4603 44.9066 65.235C45.0106 65.0097 45.0626 64.7843 45.0626 64.559H44.5036V63.311H45.7516V64.403ZM60.031 64.975V53.379H61.019V57.916H62.904V58.8H61.019V64.975H60.031ZM51.88 53.873H57.938C57.9466 54.939 57.808 55.9443 57.522 56.889C57.2446 57.825 56.846 58.6873 56.326 59.476C55.8146 60.2647 55.2036 60.9753 54.493 61.608C53.7823 62.232 53.0066 62.765 52.166 63.207L51.516 62.479C52.322 62.089 53.0456 61.6123 53.687 61.049C54.337 60.477 54.8916 59.853 55.351 59.177C55.8103 58.501 56.17 57.786 56.43 57.032C56.69 56.278 56.8373 55.511 56.872 54.731H51.88V53.873ZM70.1623 59.723C70.7083 59.723 71.2067 59.7923 71.6573 59.931C72.108 60.0697 72.4937 60.2603 72.8143 60.503C73.1437 60.7457 73.3993 61.036 73.5813 61.374C73.7633 61.7033 73.8543 62.0673 73.8543 62.466C73.8543 62.8647 73.7633 63.233 73.5813 63.571C73.3993 63.9003 73.1437 64.1863 72.8143 64.429C72.4937 64.6717 72.108 64.8623 71.6573 65.001C71.2067 65.1397 70.7083 65.209 70.1623 65.209C69.6163 65.209 69.1137 65.1397 68.6543 65.001C68.2037 64.8623 67.8137 64.6717 67.4843 64.429C67.1637 64.1863 66.9123 63.9003 66.7303 63.571C66.557 63.233 66.4703 62.8647 66.4703 62.466C66.4703 62.0673 66.557 61.7033 66.7303 61.374C66.9123 61.036 67.1637 60.7457 67.4843 60.503C67.8137 60.2603 68.2037 60.0697 68.6543 59.931C69.1137 59.7923 69.6163 59.723 70.1623 59.723ZM70.1623 64.351C71.0203 64.351 71.6833 64.1733 72.1513 63.818C72.628 63.4627 72.8663 63.012 72.8663 62.466C72.8663 61.92 72.628 61.4693 72.1513 61.114C71.6833 60.7587 71.0203 60.581 70.1623 60.581C69.3043 60.581 68.637 60.7587 68.1603 61.114C67.6923 61.4693 67.4583 61.92 67.4583 62.466C67.4583 63.012 67.6923 63.4627 68.1603 63.818C68.637 64.1733 69.3043 64.351 70.1623 64.351ZM71.2283 54.64H68.3423C68.273 55.0473 68.156 55.4417 67.9913 55.823C67.9653 55.875 67.9393 55.927 67.9133 55.979C68.0953 56.187 68.3033 56.3907 68.5373 56.59C68.8233 56.8327 69.1353 57.058 69.4733 57.266C69.8113 57.4653 70.1667 57.6473 70.5393 57.812C70.912 57.9767 71.289 58.111 71.6703 58.215L71.1503 59.034C70.8123 58.9213 70.4613 58.7783 70.0973 58.605C69.742 58.4317 69.391 58.2323 69.0443 58.007C68.6977 57.7817 68.3683 57.5347 68.0563 57.266C67.857 57.0927 67.6707 56.9107 67.4973 56.72C67.3327 56.98 67.1463 57.227 66.9383 57.461C66.505 57.955 66.011 58.3927 65.4563 58.774C64.9103 59.1467 64.3557 59.4413 63.7923 59.658L63.2203 58.917C63.801 58.709 64.3383 58.4403 64.8323 58.111C65.335 57.773 65.7683 57.3873 66.1323 56.954C66.505 56.5207 66.7997 56.0483 67.0163 55.537C67.1377 55.251 67.2287 54.952 67.2893 54.64H63.9613V53.782H71.2283V54.64ZM72.7103 59.84V53.379H73.6983V55.914H75.2973V56.798H73.6983V59.84H72.7103ZM90.6043 60.23C90.093 60.048 89.586 59.8227 89.0833 59.554C88.5893 59.2767 88.117 58.9647 87.6663 58.618C87.2157 58.2713 86.7997 57.8943 86.4183 57.487C86.1497 57.1923 85.9113 56.889 85.7033 56.577C85.4347 57.0017 85.127 57.396 84.7803 57.76C84.2517 58.3147 83.645 58.8 82.9603 59.216C82.2757 59.632 81.5737 59.9657 80.8543 60.217L80.2953 59.502C81.0233 59.268 81.6993 58.9647 82.3233 58.592C82.956 58.2107 83.5063 57.773 83.9743 57.279C84.4423 56.785 84.815 56.2347 85.0923 55.628C85.3783 55.0213 85.5387 54.3713 85.5733 53.678H86.6133C86.5873 54.4147 86.4313 55.1037 86.1453 55.745C86.648 56.5337 87.3067 57.24 88.1213 57.864C88.9967 58.5313 90.0107 59.06 91.1633 59.45L90.6043 60.23ZM85.2613 63.025V59.658H86.2753V63.025H91.4623V63.883H80.0743V63.025H85.2613ZM103.739 58.501V59.333H98.5517V60.282C98.9157 60.308 99.2667 60.3643 99.6047 60.451C100.073 60.5723 100.476 60.7457 100.814 60.971C101.16 61.1963 101.429 61.4693 101.62 61.79C101.819 62.1107 101.919 62.4703 101.919 62.869C101.919 63.2677 101.819 63.6273 101.62 63.948C101.429 64.2687 101.16 64.5417 100.814 64.767C100.476 64.9923 100.073 65.1657 99.6047 65.287C99.1367 65.4083 98.634 65.469 98.0967 65.469C97.5594 65.469 97.0567 65.4083 96.5887 65.287C96.1207 65.1657 95.7134 64.9923 95.3667 64.767C95.0287 64.5417 94.76 64.2687 94.5607 63.948C94.37 63.6273 94.2747 63.2677 94.2747 62.869C94.2747 62.4703 94.37 62.1107 94.5607 61.79C94.76 61.4693 95.0287 61.1963 95.3667 60.971C95.7134 60.7457 96.1207 60.5723 96.5887 60.451C96.892 60.373 97.2084 60.321 97.5377 60.295V59.333H92.3507V58.501H103.739ZM102.751 57.708C102.335 57.656 101.91 57.578 101.477 57.474C101.043 57.3613 100.614 57.227 100.19 57.071C99.765 56.9063 99.3534 56.7157 98.9547 56.499C98.5907 56.2997 98.2484 56.0743 97.9277 55.823C97.5984 56.161 97.2084 56.4557 96.7577 56.707C96.2377 57.0017 95.67 57.24 95.0547 57.422C94.448 57.604 93.8587 57.7297 93.2867 57.799L92.8837 57.032C93.473 56.954 94.0364 56.8457 94.5737 56.707C95.111 56.5597 95.5964 56.3733 96.0297 56.148C96.4717 55.914 96.84 55.641 97.1347 55.329C97.3947 55.0603 97.581 54.7483 97.6937 54.393H93.6377V53.587H102.439V54.393H98.7727C98.7034 54.679 98.5907 54.9433 98.4347 55.186C98.998 55.6453 99.6697 56.0137 100.45 56.291C101.282 56.5857 102.192 56.8023 103.18 56.941L102.751 57.708ZM98.0967 64.637C98.4954 64.637 98.8637 64.5937 99.2017 64.507C99.5484 64.429 99.8474 64.312 100.099 64.156C100.359 64.0087 100.562 63.8267 100.71 63.61C100.857 63.3933 100.931 63.1463 100.931 62.869C100.931 62.5917 100.857 62.3447 100.71 62.128C100.562 61.9113 100.359 61.7293 100.099 61.582C99.8474 61.426 99.5484 61.309 99.2017 61.231C98.8637 61.1443 98.4954 61.101 98.0967 61.101C97.698 61.101 97.3254 61.1443 96.9787 61.231C96.6407 61.309 96.3417 61.426 96.0817 61.582C95.8304 61.7293 95.631 61.9113 95.4837 62.128C95.3364 62.3447 95.2627 62.5917 95.2627 62.869C95.2627 63.1463 95.3364 63.3933 95.4837 63.61C95.631 63.8267 95.8304 64.0087 96.0817 64.156C96.3417 64.312 96.6407 64.429 96.9787 64.507C97.3254 64.5937 97.698 64.637 98.0967 64.637ZM113.805 62.063V53.379H114.793V57.019H116.392V57.903H114.793V62.063H113.805ZM106.382 64.845V61.517H107.37V63.987H115.17V64.845H106.382ZM106.421 54.042V53.21H110.763V54.042H106.421ZM104.731 55.641V54.809H112.453V55.641H104.731ZM108.696 60.763C108.228 60.763 107.795 60.7067 107.396 60.594C107.006 60.4727 106.668 60.3123 106.382 60.113C106.105 59.905 105.888 59.6623 105.732 59.385C105.576 59.1077 105.498 58.8043 105.498 58.475C105.498 58.1457 105.576 57.8423 105.732 57.565C105.888 57.2877 106.105 57.0493 106.382 56.85C106.668 56.642 107.006 56.4817 107.396 56.369C107.795 56.2477 108.228 56.187 108.696 56.187C109.164 56.187 109.593 56.2477 109.983 56.369C110.382 56.4817 110.72 56.642 110.997 56.85C111.283 57.0493 111.504 57.2877 111.66 57.565C111.816 57.8423 111.894 58.1457 111.894 58.475C111.894 58.8043 111.816 59.1077 111.66 59.385C111.504 59.6623 111.283 59.905 110.997 60.113C110.72 60.3123 110.382 60.4727 109.983 60.594C109.593 60.7067 109.164 60.763 108.696 60.763ZM108.696 59.957C109.363 59.957 109.896 59.8313 110.295 59.58C110.702 59.32 110.906 58.9517 110.906 58.475C110.906 57.9983 110.702 57.6343 110.295 57.383C109.896 57.123 109.363 56.993 108.696 56.993C108.029 56.993 107.491 57.123 107.084 57.383C106.685 57.6343 106.486 57.9983 106.486 58.475C106.486 58.9517 106.685 59.32 107.084 59.58C107.491 59.8313 108.029 59.957 108.696 59.957ZM126.486 62.895V60.282H121.169V59.424H132.557V60.282H127.5V62.895H126.486ZM131.621 58.306C131.162 58.2453 130.702 58.1413 130.243 57.994C129.792 57.838 129.355 57.643 128.93 57.409C128.505 57.175 128.102 56.9063 127.721 56.603C127.392 56.343 127.084 56.0527 126.798 55.732C126.529 56.096 126.213 56.4253 125.849 56.72C125.329 57.1533 124.74 57.513 124.081 57.799C123.431 58.0763 122.772 58.2583 122.105 58.345L121.65 57.578C122.335 57.4827 122.972 57.3137 123.561 57.071C124.159 56.8197 124.679 56.512 125.121 56.148C125.563 55.784 125.918 55.368 126.187 54.9C126.456 54.432 126.607 53.9293 126.642 53.392H127.682C127.656 53.964 127.517 54.5013 127.266 55.004C127.786 55.6367 128.445 56.1697 129.242 56.603C130.048 57.0363 130.993 57.344 132.076 57.526L131.621 58.306ZM122.443 64.845V61.413H123.431V63.987H131.712V64.845H122.443ZM142.493 61.933V53.379H143.481V56.629H145.08V57.513H143.481V61.933H142.493ZM135.07 64.845V61.023H136.058V63.987H143.858V64.845H135.07ZM134.121 53.782H140.101C140.11 54.666 139.945 55.4763 139.607 56.213C139.269 56.941 138.819 57.5867 138.255 58.15C137.692 58.7133 137.042 59.1857 136.305 59.567C135.569 59.9397 134.802 60.217 134.004 60.399L133.51 59.619C134.29 59.4543 135.001 59.2073 135.642 58.878C136.292 58.5487 136.856 58.163 137.332 57.721C137.809 57.279 138.19 56.798 138.476 56.278C138.762 55.7493 138.94 55.2033 139.009 54.64H134.121V53.782ZM157.11 58.397V59.229H145.722V58.397H157.11ZM146.944 64.897V62.18H154.874V61.127H146.944V60.321H155.862V62.96H147.932V64.078H156.135V64.897H146.944ZM155.94 57.357H147.009V53.587H155.784V54.393H147.997V56.538H155.94V57.357Z" fill="black"/>
</svg>
