<svg width="234" height="63" viewBox="0 0 234 63" fill="none" xmlns="http://www.w3.org/2000/svg">
<path d="M50.5758 60.897V58.089H58.0638V56.932H50.5758V56.126H59.0518V58.869H51.5638V60.065H59.3118V60.897H50.5758ZM53.7738 51.719C53.7132 51.979 53.6222 52.2303 53.5008 52.473C53.6395 52.655 53.7955 52.824 53.9688 52.98C54.2462 53.2313 54.5538 53.4567 54.8918 53.656C55.2385 53.8553 55.6068 54.0243 55.9968 54.163C56.3955 54.3017 56.7985 54.41 57.2058 54.488L56.6988 55.32C56.3262 55.2333 55.9448 55.112 55.5548 54.956C55.1735 54.7913 54.8052 54.6007 54.4498 54.384C54.0945 54.1587 53.7608 53.9073 53.4488 53.63C53.3015 53.4913 53.1628 53.3483 53.0328 53.201C52.8162 53.4783 52.5735 53.7383 52.3048 53.981C51.8542 54.3797 51.3515 54.7263 50.7968 55.021C50.2508 55.3157 49.7135 55.5367 49.1848 55.684L48.6258 54.943C49.1892 54.787 49.7178 54.5877 50.2118 54.345C50.7145 54.0937 51.1522 53.8033 51.5248 53.474C51.9062 53.136 52.2095 52.7633 52.4348 52.356C52.5475 52.148 52.6385 51.9357 52.7078 51.719H49.4578V50.913H56.6598V51.719H53.7738ZM58.0638 55.528V49.379H59.0518V52.031H60.6508V52.889H59.0518V55.528H58.0638ZM50.9658 50.016V49.21H55.1518V50.016H50.9658ZM69.9372 60.975V49.379H70.9252V53.539H72.8102V54.423H70.9252V60.975H69.9372ZM62.7872 49.743V57.842L69.2352 57.543V58.401L61.7992 58.804V49.743H62.7872ZM74.7516 60.403C74.7516 60.559 74.7256 60.715 74.6736 60.871C74.6216 61.0357 74.5522 61.1917 74.4656 61.339C74.3789 61.4863 74.2749 61.625 74.1536 61.755C74.0409 61.885 73.9196 61.9977 73.7896 62.093L73.4646 61.807C73.6639 61.651 73.8112 61.4603 73.9066 61.235C74.0106 61.0097 74.0626 60.7843 74.0626 60.559H73.5036V59.311H74.7516V60.403ZM89.031 60.975V49.379H90.019V53.916H91.904V54.8H90.019V60.975H89.031ZM80.88 49.873H86.938C86.9466 50.939 86.808 51.9443 86.522 52.889C86.2446 53.825 85.846 54.6873 85.326 55.476C84.8146 56.2647 84.2036 56.9753 83.493 57.608C82.7823 58.232 82.0066 58.765 81.166 59.207L80.516 58.479C81.322 58.089 82.0456 57.6123 82.687 57.049C83.337 56.477 83.8916 55.853 84.351 55.177C84.8103 54.501 85.17 53.786 85.43 53.032C85.69 52.278 85.8373 51.511 85.872 50.731H80.88V49.873ZM99.1623 55.723C99.7083 55.723 100.207 55.7923 100.657 55.931C101.108 56.0697 101.494 56.2603 101.814 56.503C102.144 56.7457 102.399 57.036 102.581 57.374C102.763 57.7033 102.854 58.0673 102.854 58.466C102.854 58.8647 102.763 59.233 102.581 59.571C102.399 59.9003 102.144 60.1863 101.814 60.429C101.494 60.6717 101.108 60.8623 100.657 61.001C100.207 61.1397 99.7083 61.209 99.1623 61.209C98.6163 61.209 98.1137 61.1397 97.6543 61.001C97.2037 60.8623 96.8137 60.6717 96.4843 60.429C96.1637 60.1863 95.9123 59.9003 95.7303 59.571C95.557 59.233 95.4703 58.8647 95.4703 58.466C95.4703 58.0673 95.557 57.7033 95.7303 57.374C95.9123 57.036 96.1637 56.7457 96.4843 56.503C96.8137 56.2603 97.2037 56.0697 97.6543 55.931C98.1137 55.7923 98.6163 55.723 99.1623 55.723ZM99.1623 60.351C100.02 60.351 100.683 60.1733 101.151 59.818C101.628 59.4627 101.866 59.012 101.866 58.466C101.866 57.92 101.628 57.4693 101.151 57.114C100.683 56.7587 100.02 56.581 99.1623 56.581C98.3043 56.581 97.637 56.7587 97.1603 57.114C96.6923 57.4693 96.4583 57.92 96.4583 58.466C96.4583 59.012 96.6923 59.4627 97.1603 59.818C97.637 60.1733 98.3043 60.351 99.1623 60.351ZM100.228 50.64H97.3423C97.273 51.0473 97.156 51.4417 96.9913 51.823C96.9653 51.875 96.9393 51.927 96.9133 51.979C97.0953 52.187 97.3033 52.3907 97.5373 52.59C97.8233 52.8327 98.1353 53.058 98.4733 53.266C98.8113 53.4653 99.1667 53.6473 99.5393 53.812C99.912 53.9767 100.289 54.111 100.67 54.215L100.15 55.034C99.8123 54.9213 99.4613 54.7783 99.0973 54.605C98.742 54.4317 98.391 54.2323 98.0443 54.007C97.6977 53.7817 97.3683 53.5347 97.0563 53.266C96.857 53.0927 96.6707 52.9107 96.4973 52.72C96.3327 52.98 96.1463 53.227 95.9383 53.461C95.505 53.955 95.011 54.3927 94.4563 54.774C93.9103 55.1467 93.3557 55.4413 92.7923 55.658L92.2203 54.917C92.801 54.709 93.3383 54.4403 93.8323 54.111C94.335 53.773 94.7683 53.3873 95.1323 52.954C95.505 52.5207 95.7997 52.0483 96.0163 51.537C96.1377 51.251 96.2287 50.952 96.2893 50.64H92.9613V49.782H100.228V50.64ZM101.71 55.84V49.379H102.698V51.914H104.297V52.798H102.698V55.84H101.71ZM119.604 56.23C119.093 56.048 118.586 55.8227 118.083 55.554C117.589 55.2767 117.117 54.9647 116.666 54.618C116.216 54.2713 115.8 53.8943 115.418 53.487C115.15 53.1923 114.911 52.889 114.703 52.577C114.435 53.0017 114.127 53.396 113.78 53.76C113.252 54.3147 112.645 54.8 111.96 55.216C111.276 55.632 110.574 55.9657 109.854 56.217L109.295 55.502C110.023 55.268 110.699 54.9647 111.323 54.592C111.956 54.2107 112.506 53.773 112.974 53.279C113.442 52.785 113.815 52.2347 114.092 51.628C114.378 51.0213 114.539 50.3713 114.573 49.678H115.613C115.587 50.4147 115.431 51.1037 115.145 51.745C115.648 52.5337 116.307 53.24 117.121 53.864C117.997 54.5313 119.011 55.06 120.163 55.45L119.604 56.23ZM114.261 59.025V55.658H115.275V59.025H120.462V59.883H109.074V59.025H114.261ZM132.739 54.501V55.333H127.552V56.282C127.916 56.308 128.267 56.3643 128.605 56.451C129.073 56.5723 129.476 56.7457 129.814 56.971C130.16 57.1963 130.429 57.4693 130.62 57.79C130.819 58.1107 130.919 58.4703 130.919 58.869C130.919 59.2677 130.819 59.6273 130.62 59.948C130.429 60.2687 130.16 60.5417 129.814 60.767C129.476 60.9923 129.073 61.1657 128.605 61.287C128.137 61.4083 127.634 61.469 127.097 61.469C126.559 61.469 126.057 61.4083 125.589 61.287C125.121 61.1657 124.713 60.9923 124.367 60.767C124.029 60.5417 123.76 60.2687 123.561 59.948C123.37 59.6273 123.275 59.2677 123.275 58.869C123.275 58.4703 123.37 58.1107 123.561 57.79C123.76 57.4693 124.029 57.1963 124.367 56.971C124.713 56.7457 125.121 56.5723 125.589 56.451C125.892 56.373 126.208 56.321 126.538 56.295V55.333H121.351V54.501H132.739ZM131.751 53.708C131.335 53.656 130.91 53.578 130.477 53.474C130.043 53.3613 129.614 53.227 129.19 53.071C128.765 52.9063 128.353 52.7157 127.955 52.499C127.591 52.2997 127.248 52.0743 126.928 51.823C126.598 52.161 126.208 52.4557 125.758 52.707C125.238 53.0017 124.67 53.24 124.055 53.422C123.448 53.604 122.859 53.7297 122.287 53.799L121.884 53.032C122.473 52.954 123.036 52.8457 123.574 52.707C124.111 52.5597 124.596 52.3733 125.03 52.148C125.472 51.914 125.84 51.641 126.135 51.329C126.395 51.0603 126.581 50.7483 126.694 50.393H122.638V49.587H131.439V50.393H127.773C127.703 50.679 127.591 50.9433 127.435 51.186C127.998 51.6453 128.67 52.0137 129.45 52.291C130.282 52.5857 131.192 52.8023 132.18 52.941L131.751 53.708ZM127.097 60.637C127.495 60.637 127.864 60.5937 128.202 60.507C128.548 60.429 128.847 60.312 129.099 60.156C129.359 60.0087 129.562 59.8267 129.71 59.61C129.857 59.3933 129.931 59.1463 129.931 58.869C129.931 58.5917 129.857 58.3447 129.71 58.128C129.562 57.9113 129.359 57.7293 129.099 57.582C128.847 57.426 128.548 57.309 128.202 57.231C127.864 57.1443 127.495 57.101 127.097 57.101C126.698 57.101 126.325 57.1443 125.979 57.231C125.641 57.309 125.342 57.426 125.082 57.582C124.83 57.7293 124.631 57.9113 124.484 58.128C124.336 58.3447 124.263 58.5917 124.263 58.869C124.263 59.1463 124.336 59.3933 124.484 59.61C124.631 59.8267 124.83 60.0087 125.082 60.156C125.342 60.312 125.641 60.429 125.979 60.507C126.325 60.5937 126.698 60.637 127.097 60.637ZM142.805 58.063V49.379H143.793V53.019H145.392V53.903H143.793V58.063H142.805ZM135.382 60.845V57.517H136.37V59.987H144.17V60.845H135.382ZM135.421 50.042V49.21H139.763V50.042H135.421ZM133.731 51.641V50.809H141.453V51.641H133.731ZM137.696 56.763C137.228 56.763 136.795 56.7067 136.396 56.594C136.006 56.4727 135.668 56.3123 135.382 56.113C135.105 55.905 134.888 55.6623 134.732 55.385C134.576 55.1077 134.498 54.8043 134.498 54.475C134.498 54.1457 134.576 53.8423 134.732 53.565C134.888 53.2877 135.105 53.0493 135.382 52.85C135.668 52.642 136.006 52.4817 136.396 52.369C136.795 52.2477 137.228 52.187 137.696 52.187C138.164 52.187 138.593 52.2477 138.983 52.369C139.382 52.4817 139.72 52.642 139.997 52.85C140.283 53.0493 140.504 53.2877 140.66 53.565C140.816 53.8423 140.894 54.1457 140.894 54.475C140.894 54.8043 140.816 55.1077 140.66 55.385C140.504 55.6623 140.283 55.905 139.997 56.113C139.72 56.3123 139.382 56.4727 138.983 56.594C138.593 56.7067 138.164 56.763 137.696 56.763ZM137.696 55.957C138.363 55.957 138.896 55.8313 139.295 55.58C139.702 55.32 139.906 54.9517 139.906 54.475C139.906 53.9983 139.702 53.6343 139.295 53.383C138.896 53.123 138.363 52.993 137.696 52.993C137.029 52.993 136.491 53.123 136.084 53.383C135.685 53.6343 135.486 53.9983 135.486 54.475C135.486 54.9517 135.685 55.32 136.084 55.58C136.491 55.8313 137.029 55.957 137.696 55.957ZM155.486 58.895V56.282H150.169V55.424H161.557V56.282H156.5V58.895H155.486ZM160.621 54.306C160.162 54.2453 159.702 54.1413 159.243 53.994C158.792 53.838 158.355 53.643 157.93 53.409C157.505 53.175 157.102 52.9063 156.721 52.603C156.392 52.343 156.084 52.0527 155.798 51.732C155.529 52.096 155.213 52.4253 154.849 52.72C154.329 53.1533 153.74 53.513 153.081 53.799C152.431 54.0763 151.772 54.2583 151.105 54.345L150.65 53.578C151.335 53.4827 151.972 53.3137 152.561 53.071C153.159 52.8197 153.679 52.512 154.121 52.148C154.563 51.784 154.918 51.368 155.187 50.9C155.456 50.432 155.607 49.9293 155.642 49.392H156.682C156.656 49.964 156.517 50.5013 156.266 51.004C156.786 51.6367 157.445 52.1697 158.242 52.603C159.048 53.0363 159.993 53.344 161.076 53.526L160.621 54.306ZM151.443 60.845V57.413H152.431V59.987H160.712V60.845H151.443ZM171.493 57.933V49.379H172.481V52.629H174.08V53.513H172.481V57.933H171.493ZM164.07 60.845V57.023H165.058V59.987H172.858V60.845H164.07ZM163.121 49.782H169.101C169.11 50.666 168.945 51.4763 168.607 52.213C168.269 52.941 167.819 53.5867 167.255 54.15C166.692 54.7133 166.042 55.1857 165.305 55.567C164.569 55.9397 163.802 56.217 163.004 56.399L162.51 55.619C163.29 55.4543 164.001 55.2073 164.642 54.878C165.292 54.5487 165.856 54.163 166.332 53.721C166.809 53.279 167.19 52.798 167.476 52.278C167.762 51.7493 167.94 51.2033 168.009 50.64H163.121V49.782ZM186.11 54.397V55.229H174.722V54.397H186.11ZM175.944 60.897V58.18H183.874V57.127H175.944V56.321H184.862V58.96H176.932V60.078H185.135V60.897H175.944ZM184.94 53.357H176.009V49.587H184.784V50.393H176.997V52.538H184.94V53.357Z" fill="white"/>
<path d="M30.4123 20.4969C33.2453 16.17 32.0323 10.367 27.7029 7.5355C23.3736 4.70404 17.5672 5.91635 14.7342 10.2433L5.12994 24.9117C2.29687 29.2386 3.50987 35.0416 7.83926 37.8731C12.1686 40.7046 17.975 39.4922 20.808 35.1653L30.4123 20.4969Z" fill="white"/>
<path d="M55.6402 39.4421C60.2998 39.4421 64.0772 35.6669 64.0772 31.0099C64.0772 26.3529 60.2998 22.5776 55.6402 22.5776C50.9805 22.5776 47.2031 26.3529 47.2031 31.0099C47.2031 35.6669 50.9805 39.4421 55.6402 39.4421Z" fill="white"/>
<g filter="url(#filter0_d_220_2)">
<path d="M49.2384 20.0882C52.0715 15.7613 50.8585 9.95827 46.5291 7.12681C42.1997 4.29535 36.3934 5.50766 33.5603 9.83458L23.9561 24.503C21.123 28.8299 22.336 34.6329 26.6654 37.4644C30.9948 40.2959 36.8011 39.0836 39.6342 34.7566L49.2384 20.0882Z" fill="white"/>
</g>
<path d="M99.0976 32.7641H93.0979L93.0611 20.4772C92.9139 17.755 91.6992 16.5042 89.4539 16.5042C87.2086 16.5042 85.9203 17.755 85.8099 20.3301L85.7731 32.7641H79.663V11.4644H84.8161V12.4944C86.0308 11.7587 87.5031 11.2804 89.4539 11.2804C92.1409 11.2804 94.3494 11.869 96.0794 14.0395C98.0302 11.869 100.018 11.2804 102.705 11.2804C108.373 11.2437 112.054 14.5913 112.312 19.6311C112.349 20.1461 112.385 20.698 112.385 21.2498V32.7641H106.459V22.8316C106.459 21.9487 106.422 21.1394 106.349 20.3301C106.165 17.755 104.95 16.541 102.705 16.5042C100.46 16.5042 99.2449 17.755 99.0608 20.4404L99.0976 32.7641Z" fill="white"/>
<path d="M120.655 22.2062C120.655 25.3699 122.827 27.6875 125.735 27.6507C128.68 27.6507 130.851 25.3699 130.851 22.2062C130.851 19.0425 128.68 16.7617 125.735 16.7617C122.827 16.7617 120.655 19.0425 120.655 22.2062ZM114.619 22.2062C114.619 16.4674 119.772 11.2804 125.772 11.2804C131.808 11.2804 136.888 16.5042 136.888 22.2062C136.888 27.945 131.808 33.132 125.772 33.132C119.735 33.132 114.619 27.945 114.619 22.2062Z" fill="white"/>
<path d="M159.234 32.7641H153.235L153.198 20.4772C153.05 17.755 151.836 16.5042 149.591 16.5042C147.345 16.5042 146.057 17.755 145.947 20.3301L145.91 32.7641H139.8V11.4644H144.953V12.4944C146.167 11.7587 147.64 11.2804 149.591 11.2804C152.278 11.2804 154.486 11.869 156.216 14.0395C158.167 11.869 160.154 11.2804 162.841 11.2804C168.51 11.2437 172.191 14.5913 172.448 19.6311C172.485 20.1461 172.522 20.698 172.522 21.2498V32.7641H166.596V22.8316C166.596 21.9487 166.559 21.1394 166.485 20.3301C166.301 17.755 165.087 16.541 162.841 16.5042C160.596 16.5042 159.381 17.755 159.197 20.4404L159.234 32.7641Z" fill="white"/>
<path d="M181.086 19.8518H190.068C189.884 17.9389 188.117 15.9156 185.503 15.9156C183.037 15.9156 181.455 17.6446 181.086 19.8518ZM190.62 26.0689L195.552 27.1725C194.337 29.9683 191.503 33.132 185.798 33.132C180.35 33.132 174.866 28.9383 174.866 22.2062C174.866 15.6949 179.982 11.2804 185.393 11.2804C192.239 11.2804 195.92 16.0996 195.92 23.8984H180.976C181.344 26.216 183.369 27.8714 185.761 28.0922C187.638 28.2761 189.552 27.5036 190.62 26.0689Z" fill="white"/>
<path d="M204.932 32.7641H198.822V11.4644H203.975V12.7151C205.337 11.8323 207.03 11.2804 209.091 11.2804C215.386 11.2437 219.214 14.9592 219.177 20.8451L219.214 32.7641H213.287L213.251 21.7648C213.251 18.1964 211.926 16.5042 209.091 16.5042C206.625 16.5042 205.19 17.9021 205.006 20.6612C204.932 21.2498 204.932 21.9119 204.932 22.6109V32.7641Z" fill="white"/>
<path d="M223.399 12.1266V5.61523H229.362V12.1266H233.448V17.1664H229.362V23.0155C229.362 23.4938 229.362 23.8984 229.399 24.3031C229.473 25.9585 229.914 26.8414 230.761 27.0989C231.608 27.43 232.528 27.1725 233.08 27.1725L234 32.3962C233.264 32.3595 231.424 32.9481 229.362 32.7641C224.835 32.2491 223.62 28.9015 223.473 25.4067C223.436 24.671 223.436 23.8984 223.436 23.1259L223.399 17.1664H220.455V12.1266H223.399Z" fill="white"/>
<defs>
<filter id="filter0_d_220_2" x="13.6466" y="0.58047" width="38.3764" height="43.4299" filterUnits="userSpaceOnUse" color-interpolation-filters="sRGB">
<feFlood flood-opacity="0" result="BackgroundImageFix"/>
<feColorMatrix in="SourceAlpha" type="matrix" values="0 0 0 0 0 0 0 0 0 0 0 0 0 0 0 0 0 0 127 0" result="hardAlpha"/>
<feOffset dx="-3.76252"/>
<feGaussianBlur stdDeviation="2.50835"/>
<feComposite in2="hardAlpha" operator="out"/>
<feColorMatrix type="matrix" values="0 0 0 0 0 0 0 0 0 0 0 0 0 0 0 0 0 0 0.25 0"/>
<feBlend mode="normal" in2="BackgroundImageFix" result="effect1_dropShadow_220_2"/>
<feBlend mode="normal" in="SourceGraphic" in2="effect1_dropShadow_220_2" result="shape"/>
</filter>
</defs>
</svg>
