<svg width="6" height="10" viewBox="0 0 6 10" fill="none" xmlns="http://www.w3.org/2000/svg">
<path d="M0.146512 0.77635C0.100062 0.734121 0.0632165 0.683987 0.0380777 0.628811C0.0129393 0.573635 -1.24425e-07 0.514498 -1.19204e-07 0.454776C-1.13983e-07 0.395054 0.0129393 0.335917 0.0380777 0.28074C0.0632166 0.225564 0.100062 0.175431 0.146512 0.133201C0.192962 0.0909714 0.248106 0.0574736 0.308796 0.0346188C0.369486 0.011764 0.434533 4.67126e-07 0.500223 4.72868e-07C0.565913 4.78611e-07 0.63096 0.0117641 0.691649 0.0346189C0.752339 0.0574737 0.807483 0.0909715 0.853933 0.133201L5.85337 4.67843C5.89986 4.72064 5.93673 4.77077 5.96189 4.82595C5.98705 4.88112 6 4.94027 6 5C6 5.05973 5.98705 5.11888 5.96189 5.17406C5.93673 5.22923 5.89986 5.27936 5.85337 5.32158L0.853932 9.8668C0.760122 9.95209 0.632889 10 0.500222 10C0.367555 10 0.240321 9.95209 0.146511 9.8668C0.052701 9.78151 -9.24461e-07 9.66584 -9.13917e-07 9.54522C-9.03372e-07 9.42461 0.0527011 9.30894 0.146511 9.22365L4.79287 5L0.146512 0.77635Z" fill="#B4B4B4"/>
</svg>
